<svg width="25" height="17" viewBox="0 0 25 17" fill="none" xmlns="http://www.w3.org/2000/svg">
<path d="M20.0965 5.78182C18.8698 2.50296 15.7439 0.171387 12.0823 0.171387C8.42066 0.171387 5.29476 2.50024 4.06798 5.7791C1.77244 6.38982 0.0769043 8.50967 0.0769043 11.0285C0.0769043 14.0278 2.47423 16.4571 5.43137 16.4571H6.50548C6.62333 16.4571 6.71976 16.3594 6.71976 16.24V14.6114C6.71976 14.492 6.62333 14.3942 6.50548 14.3942H5.43137C4.52869 14.3942 3.67958 14.0305 3.04744 13.371C2.41798 12.7141 2.08315 11.8292 2.11262 10.9118C2.13673 10.1952 2.3778 9.5221 2.8144 8.95482C3.26173 8.37667 3.88851 7.95596 4.58494 7.76867L5.60012 7.49996L5.97244 6.50653C6.2028 5.88767 6.52423 5.30953 6.92869 4.78567C7.32799 4.26645 7.80098 3.81002 8.33226 3.43124C9.43316 2.64682 10.7296 2.23153 12.0823 2.23153C13.4349 2.23153 14.7314 2.64682 15.8323 3.43124C16.3653 3.81124 16.8367 4.26724 17.2358 4.78567C17.6403 5.30953 17.9617 5.89039 18.1921 6.50653L18.5617 7.49724L19.5742 7.76867C21.026 8.16496 22.0412 9.5031 22.0412 11.0285C22.0412 11.927 21.6957 12.7738 21.0689 13.409C20.7615 13.7223 20.3958 13.9707 19.9931 14.1398C19.5903 14.3089 19.1584 14.3954 18.7224 14.3942H17.6483C17.5305 14.3942 17.434 14.492 17.434 14.6114V16.24C17.434 16.3594 17.5305 16.4571 17.6483 16.4571H18.7224C21.6796 16.4571 24.0769 14.0278 24.0769 11.0285C24.0769 8.51239 22.3867 6.39524 20.0965 5.78182Z" fill="white"/>
</svg>
